{
    "asset" : {
        "generator" : "Khronos glTF Blender I/O v1.6.16",
        "version" : "2.0"
    },
    "scene" : 0,
    "scenes" : [
        {
            "name" : "Scene",
            "nodes" : [
                0
            ]
        }
    ],
    "nodes" : [
        {
            "mesh" : 0,
            "name" : "matCube"
        }
    ],
    "materials" : [
        {
            "doubleSided" : true,
            "emissiveFactor" : [
                1,
                1,
                1
            ],
            "emissiveTexture" : {
                "index" : 0
            },
            "name" : "Material.003",
            "pbrMetallicRoughness" : {
                "baseColorTexture" : {
                    "index" : 1
                },
                "metallicFactor" : 0,
                "metallicRoughnessTexture" : {
                    "index" : 2
                }
            }
        }
    ],
    "meshes" : [
        {
            "name" : "Cube.001",
            "primitives" : [
                {
                    "attributes" : {
                        "POSITION" : 0,
                        "NORMAL" : 1,
                        "TEXCOORD_0" : 2
                    },
                    "indices" : 3,
                    "material" : 0
                }
            ]
        }
    ],
    "textures" : [
        {
            "sampler" : 0,
            "source" : 0
        },
        {
            "sampler" : 0,
            "source" : 1
        },
        {
            "sampler" : 0,
            "source" : 2
        }
    ],
    "images" : [
        {
            "bufferView" : 4,
            "mimeType" : "image/jpeg",
            "name" : "emit"
        },
        {
            "bufferView" : 5,
            "mimeType" : "image/jpeg",
            "name" : "diffuse"
        },
        {
            "bufferView" : 6,
            "mimeType" : "image/png",
            "name" : "roughness"
        }
    ],
    "accessors" : [
        {
            "bufferView" : 0,
            "componentType" : 5126,
            "count" : 7560,
            "max" : [
                1.6131595373153687,
                15.537761688232422,
                2.131734609603882
            ],
            "min" : [
                -2.053736686706543,
                -0.5542338490486145,
                -1.6405290365219116
            ],
            "type" : "VEC3"
        },
        {
            "bufferView" : 1,
            "componentType" : 5126,
            "count" : 7560,
            "type" : "VEC3"
        },
        {
            "bufferView" : 2,
            "componentType" : 5126,
            "count" : 7560,
            "type" : "VEC2"
        },
        {
            "bufferView" : 3,
            "componentType" : 5123,
            "count" : 34416,
            "type" : "SCALAR"
        }
    ],
    "bufferViews" : [
        {
            "buffer" : 0,
            "byteLength" : 90720,
            "byteOffset" : 0
        },
        {
            "buffer" : 0,
            "byteLength" : 90720,
            "byteOffset" : 90720
        },
        {
            "buffer" : 0,
            "byteLength" : 60480,
            "byteOffset" : 181440
        },
        {
            "buffer" : 0,
            "byteLength" : 68832,
            "byteOffset" : 241920
        },
        {
            "buffer" : 0,
            "byteLength" : 214219,
            "byteOffset" : 310752
        },
        {
            "buffer" : 0,
            "byteLength" : 144813,
            "byteOffset" : 524972
        },
        {
            "buffer" : 0,
            "byteLength" : 433818,
            "byteOffset" : 669788
        }
    ],
    "samplers" : [
        {
            "magFilter" : 9729,
            "minFilter" : 9987
        }
    ],
    "buffers" : [
        {
            "byteLength" : 1103608,
            "uri" : "data:application/octet-stream;base64,"
        }
    ]
}
