{
    "asset" : {
        "generator" : "Khronos glTF Blender I/O v1.6.16",
        "version" : "2.0"
    },
    "scene" : 0,
    "scenes" : [
        {
            "name" : "Scene",
            "nodes" : [
                0
            ]
        }
    ],
    "nodes" : [
        {
            "mesh" : 0,
            "name" : "Cube"
        }
    ],
    "materials" : [
        {
            "doubleSided" : true,
            "name" : "Material",
            "pbrMetallicRoughness" : {
                "baseColorFactor" : [
                    0.04150049760937691,
                    0.268331378698349,
                    0.8000000715255737,
                    1
                ],
                "metallicFactor" : 0,
                "roughnessFactor" : 0.4000000059604645
            }
        },
        {
            "doubleSided" : true,
            "emissiveFactor" : [
                1,
                1,
                0.011543163564056158
            ],
            "name" : "Material.002",
            "pbrMetallicRoughness" : {}
        }
    ],
    "meshes" : [
        {
            "name" : "Cube",
            "primitives" : [
                {
                    "attributes" : {
                        "POSITION" : 0,
                        "NORMAL" : 1,
                        "TEXCOORD_0" : 2
                    },
                    "indices" : 3,
                    "material" : 0
                },
                {
                    "attributes" : {
                        "POSITION" : 4,
                        "NORMAL" : 5,
                        "TEXCOORD_0" : 6
                    },
                    "indices" : 7,
                    "material" : 1
                }
            ]
        }
    ],
    "accessors" : [
        {
            "bufferView" : 0,
            "componentType" : 5126,
            "count" : 2634,
            "max" : [
                1.4022866487503052,
                15.537761688232422,
                1.4725419282913208
            ],
            "min" : [
                -1.4022548198699951,
                -0.5542338490486145,
                -1.472567081451416
            ],
            "type" : "VEC3"
        },
        {
            "bufferView" : 1,
            "componentType" : 5126,
            "count" : 2634,
            "type" : "VEC3"
        },
        {
            "bufferView" : 2,
            "componentType" : 5126,
            "count" : 2634,
            "type" : "VEC2"
        },
        {
            "bufferView" : 3,
            "componentType" : 5123,
            "count" : 11460,
            "type" : "SCALAR"
        },
        {
            "bufferView" : 4,
            "componentType" : 5126,
            "count" : 3684,
            "max" : [
                1.6131595373153687,
                14.082490921020508,
                2.131734609603882
            ],
            "min" : [
                -2.053736686706543,
                2.183910608291626,
                -1.6405290365219116
            ],
            "type" : "VEC3"
        },
        {
            "bufferView" : 5,
            "componentType" : 5126,
            "count" : 3684,
            "type" : "VEC3"
        },
        {
            "bufferView" : 6,
            "componentType" : 5126,
            "count" : 3684,
            "type" : "VEC2"
        },
        {
            "bufferView" : 7,
            "componentType" : 5123,
            "count" : 16044,
            "type" : "SCALAR"
        }
    ],
    "bufferViews" : [
        {
            "buffer" : 0,
            "byteLength" : 31608,
            "byteOffset" : 0
        },
        {
            "buffer" : 0,
            "byteLength" : 31608,
            "byteOffset" : 31608
        },
        {
            "buffer" : 0,
            "byteLength" : 21072,
            "byteOffset" : 63216
        },
        {
            "buffer" : 0,
            "byteLength" : 22920,
            "byteOffset" : 84288
        },
        {
            "buffer" : 0,
            "byteLength" : 44208,
            "byteOffset" : 107208
        },
        {
            "buffer" : 0,
            "byteLength" : 44208,
            "byteOffset" : 151416
        },
        {
            "buffer" : 0,
            "byteLength" : 29472,
            "byteOffset" : 195624
        },
        {
            "buffer" : 0,
            "byteLength" : 32088,
            "byteOffset" : 225096
        }
    ],
    "buffers" : [
        {
            "byteLength" : 257184,
            "uri" : "data:application/octet-stream;base64,"
        }
    ]
}
