{
    "asset" : {
        "generator" : "Khronos glTF Blender I/O v1.6.16",
        "version" : "2.0"
    },
    "scene" : 0,
    "scenes" : [
        {
            "name" : "Scene",
            "nodes" : [
                0
            ]
        }
    ],
    "nodes" : [
        {
            "mesh" : 0,
            "name" : "Suzanne.001"
        }
    ],
    "materials" : [
        {
            "doubleSided" : true,
            "name" : "Material.001",
            "pbrMetallicRoughness" : {
                "baseColorFactor" : [
                    0.35734033584594727,
                    0.40847527980804443,
                    0.47699248790740967,
                    1
                ],
                "roughnessFactor" : 0.5
            }
        },
        {
            "doubleSided" : true,
            "emissiveFactor" : [
                0.6096455827355385,
                1,
                1
            ],
            "name" : "Material.002",
            "pbrMetallicRoughness" : {
                "baseColorFactor" : [
                    0.800000011920929,
                    0.800000011920929,
                    0.800000011920929,
                    1
                ],
                "metallicFactor" : 0,
                "roughnessFactor" : 0.5
            }
        }
    ],
    "meshes" : [
        {
            "name" : "Suzanne.002",
            "primitives" : [
                {
                    "attributes" : {
                        "POSITION" : 0,
                        "NORMAL" : 1,
                        "TEXCOORD_0" : 2
                    },
                    "indices" : 3,
                    "material" : 0
                },
                {
                    "attributes" : {
                        "POSITION" : 4,
                        "NORMAL" : 5,
                        "TEXCOORD_0" : 6
                    },
                    "indices" : 7,
                    "material" : 1
                }
            ]
        }
    ],
    "accessors" : [
        {
            "bufferView" : 0,
            "componentType" : 5126,
            "count" : 2531,
            "max" : [
                1.325934886932373,
                0.9392362236976624,
                0.8208942413330078
            ],
            "min" : [
                -1.325934886932373,
                -0.9704862236976624,
                -0.7782661318778992
            ],
            "type" : "VEC3"
        },
        {
            "bufferView" : 1,
            "componentType" : 5126,
            "count" : 2531,
            "type" : "VEC3"
        },
        {
            "bufferView" : 2,
            "componentType" : 5126,
            "count" : 2531,
            "type" : "VEC2"
        },
        {
            "bufferView" : 3,
            "componentType" : 5123,
            "count" : 10368,
            "type" : "SCALAR"
        },
        {
            "bufferView" : 4,
            "componentType" : 5126,
            "count" : 397,
            "max" : [
                0.5989583730697632,
                0.48958340287208557,
                0.8223199844360352
            ],
            "min" : [
                -0.5989583730697632,
                0.002604166977107525,
                0.567708432674408
            ],
            "type" : "VEC3"
        },
        {
            "bufferView" : 5,
            "componentType" : 5126,
            "count" : 397,
            "type" : "VEC3"
        },
        {
            "bufferView" : 6,
            "componentType" : 5126,
            "count" : 397,
            "type" : "VEC2"
        },
        {
            "bufferView" : 7,
            "componentType" : 5123,
            "count" : 1440,
            "type" : "SCALAR"
        }
    ],
    "bufferViews" : [
        {
            "buffer" : 0,
            "byteLength" : 30372,
            "byteOffset" : 0
        },
        {
            "buffer" : 0,
            "byteLength" : 30372,
            "byteOffset" : 30372
        },
        {
            "buffer" : 0,
            "byteLength" : 20248,
            "byteOffset" : 60744
        },
        {
            "buffer" : 0,
            "byteLength" : 20736,
            "byteOffset" : 80992
        },
        {
            "buffer" : 0,
            "byteLength" : 4764,
            "byteOffset" : 101728
        },
        {
            "buffer" : 0,
            "byteLength" : 4764,
            "byteOffset" : 106492
        },
        {
            "buffer" : 0,
            "byteLength" : 3176,
            "byteOffset" : 111256
        },
        {
            "buffer" : 0,
            "byteLength" : 2880,
            "byteOffset" : 114432
        }
    ],
    "buffers" : [
        {
            "byteLength" : 117312,
            "uri" : "data:application/octet-stream;base64,"
        }
    ]
}
