{
    "asset" : {
        "generator" : "Khronos glTF Blender I/O v1.6.16",
        "version" : "2.0"
    },
    "scene" : 0,
    "scenes" : [
        {
            "name" : "Scene",
            "nodes" : [
                0,
                1,
                2
            ]
        }
    ],
    "nodes" : [
        {
            "mesh" : 0,
            "name" : "Cube"
        },
        {
            "mesh" : 1,
            "name" : "BezierCurve"
        },
        {
            "mesh" : 2,
            "name" : "Cube.001"
        }
    ],
    "materials" : [
        {
            "doubleSided" : true,
            "emissiveFactor" : [
                1,
                0.42799243703484535,
                0
            ],
            "name" : "Material.001",
            "pbrMetallicRoughness" : {}
        },
        {
            "doubleSided" : true,
            "emissiveFactor" : [
                0.5193355679512024,
                1,
                1
            ],
            "name" : "Material",
            "pbrMetallicRoughness" : {}
        },
        {
            "doubleSided" : true,
            "name" : "Material.002",
            "pbrMetallicRoughness" : {}
        }
    ],
    "meshes" : [
        {
            "name" : "Cube",
            "primitives" : [
                {
                    "attributes" : {
                        "POSITION" : 0,
                        "NORMAL" : 1
                    },
                    "indices" : 2,
                    "material" : 0
                }
            ]
        },
        {
            "name" : "BezierCurve",
            "primitives" : [
                {
                    "attributes" : {
                        "POSITION" : 3,
                        "NORMAL" : 4
                    },
                    "indices" : 5,
                    "material" : 1
                }
            ]
        },
        {
            "name" : "Cube.001",
            "primitives" : [
                {
                    "attributes" : {
                        "POSITION" : 6,
                        "NORMAL" : 7
                    },
                    "indices" : 8,
                    "material" : 2
                }
            ]
        }
    ],
    "accessors" : [
        {
            "bufferView" : 0,
            "componentType" : 5126,
            "count" : 1008,
            "max" : [
                1.0939793586730957,
                9.585530281066895,
                1.3579800128936768
            ],
            "min" : [
                -2.311337471008301,
                -0.003974828869104385,
                -1.571037769317627
            ],
            "type" : "VEC3"
        },
        {
            "bufferView" : 1,
            "componentType" : 5126,
            "count" : 1008,
            "type" : "VEC3"
        },
        {
            "bufferView" : 2,
            "componentType" : 5123,
            "count" : 8064,
            "type" : "SCALAR"
        },
        {
            "bufferView" : 3,
            "componentType" : 5126,
            "count" : 328,
            "max" : [
                2.1555745601654053,
                10.035616874694824,
                2.060884475708008
            ],
            "min" : [
                -2.678980827331543,
                -0.5718488693237305,
                -2.341719627380371
            ],
            "type" : "VEC3"
        },
        {
            "bufferView" : 4,
            "componentType" : 5126,
            "count" : 328,
            "type" : "VEC3"
        },
        {
            "bufferView" : 5,
            "componentType" : 5123,
            "count" : 960,
            "type" : "SCALAR"
        },
        {
            "bufferView" : 6,
            "componentType" : 5126,
            "count" : 168,
            "max" : [
                1.0764678716659546,
                9.568018913269043,
                1.3404685258865356
            ],
            "min" : [
                -2.29382586479187,
                0.013536691665649414,
                -1.5535262823104858
            ],
            "type" : "VEC3"
        },
        {
            "bufferView" : 7,
            "componentType" : 5126,
            "count" : 168,
            "type" : "VEC3"
        },
        {
            "bufferView" : 8,
            "componentType" : 5123,
            "count" : 924,
            "type" : "SCALAR"
        }
    ],
    "bufferViews" : [
        {
            "buffer" : 0,
            "byteLength" : 12096,
            "byteOffset" : 0
        },
        {
            "buffer" : 0,
            "byteLength" : 12096,
            "byteOffset" : 12096
        },
        {
            "buffer" : 0,
            "byteLength" : 16128,
            "byteOffset" : 24192
        },
        {
            "buffer" : 0,
            "byteLength" : 3936,
            "byteOffset" : 40320
        },
        {
            "buffer" : 0,
            "byteLength" : 3936,
            "byteOffset" : 44256
        },
        {
            "buffer" : 0,
            "byteLength" : 1920,
            "byteOffset" : 48192
        },
        {
            "buffer" : 0,
            "byteLength" : 2016,
            "byteOffset" : 50112
        },
        {
            "buffer" : 0,
            "byteLength" : 2016,
            "byteOffset" : 52128
        },
        {
            "buffer" : 0,
            "byteLength" : 1848,
            "byteOffset" : 54144
        }
    ],
    "buffers" : [
        {
            "byteLength" : 55992,
            "uri" : "data:application/octet-stream;base64,"
        }
    ]
}
