{
    "asset" : {
        "generator" : "Khronos glTF Blender I/O v1.6.16",
        "version" : "2.0"
    },
    "scene" : 0,
    "scenes" : [
        {
            "name" : "Scene",
            "nodes" : [
                0
            ]
        }
    ],
    "nodes" : [
        {
            "mesh" : 0,
            "name" : "Icosphere"
        }
    ],
    "meshes" : [
        {
            "name" : "Icosphere",
            "primitives" : [
                {
                    "attributes" : {
                        "POSITION" : 0,
                        "NORMAL" : 1,
                        "TEXCOORD_0" : 2
                    },
                    "indices" : 3
                }
            ]
        }
    ],
    "accessors" : [
        {
            "bufferView" : 0,
            "componentType" : 5126,
            "count" : 3438,
            "max" : [
                2.4531004428863525,
                16.403959274291992,
                1.9438896179199219
            ],
            "min" : [
                -2.0629541873931885,
                -0.20927858352661133,
                -2.2901999950408936
            ],
            "type" : "VEC3"
        },
        {
            "bufferView" : 1,
            "componentType" : 5126,
            "count" : 3438,
            "type" : "VEC3"
        },
        {
            "bufferView" : 2,
            "componentType" : 5126,
            "count" : 3438,
            "type" : "VEC2"
        },
        {
            "bufferView" : 3,
            "componentType" : 5123,
            "count" : 9474,
            "type" : "SCALAR"
        }
    ],
    "bufferViews" : [
        {
            "buffer" : 0,
            "byteLength" : 41256,
            "byteOffset" : 0
        },
        {
            "buffer" : 0,
            "byteLength" : 41256,
            "byteOffset" : 41256
        },
        {
            "buffer" : 0,
            "byteLength" : 27504,
            "byteOffset" : 82512
        },
        {
            "buffer" : 0,
            "byteLength" : 18948,
            "byteOffset" : 110016
        }
    ],
    "buffers" : [
        {
            "byteLength" : 128964,
            "uri" : "data:application/octet-stream;base64,"
        }
    ]
}
