{
    "asset" : {
        "generator" : "Khronos glTF Blender I/O v1.5.6",
        "version" : "2.0"
    },
    "scene" : 0,
    "scenes" : [
        {
            "name" : "Scene",
            "nodes" : [
                0,
                1
            ]
        }
    ],
    "nodes" : [
        {
            "mesh" : 0,
            "name" : "vinyls.006"
        },
        {
            "mesh" : 1,
            "name" : "vinyls.007"
        }
    ],
    "materials" : [
        {
            "doubleSided" : true,
            "name" : "white_armor",
            "pbrMetallicRoughness" : {
                "baseColorFactor" : [
                    0.6507723331451416,
                    0.6959560513496399,
                    0.7356529831886292,
                    1
                ],
                "metallicFactor" : 0,
                "roughnessFactor" : 0.5
            }
        },
        {
            "doubleSided" : true,
            "name" : "black_armor",
            "pbrMetallicRoughness" : {
                "baseColorFactor" : [
                    0.00901757925748825,
                    0.00901757925748825,
                    0.00901757925748825,
                    1
                ],
                "metallicFactor" : 0,
                "roughnessFactor" : 0.7058823704719543
            }
        },
        {
            "doubleSided" : true,
            "emissiveFactor" : [
                0.058461884036660194,
                0.09985610842704773,
                1
            ],
            "name" : "blue_emit",
            "pbrMetallicRoughness" : {
                "baseColorFactor" : [
                    0.800000011920929,
                    0.800000011920929,
                    0.800000011920929,
                    1
                ],
                "metallicFactor" : 0,
                "roughnessFactor" : 0.5
            }
        },
        {
            "doubleSided" : true,
            "name" : "wood",
            "pbrMetallicRoughness" : {
                "baseColorFactor" : [
                    0.4671970307826996,
                    0.15957534313201904,
                    0.055037062615156174,
                    1
                ],
                "metallicFactor" : 0,
                "roughnessFactor" : 0.7279411554336548
            }
        },
        {
            "doubleSided" : true,
            "name" : "metal",
            "pbrMetallicRoughness" : {
                "baseColorFactor" : [
                    0.800000011920929,
                    0.800000011920929,
                    0.800000011920929,
                    1
                ],
                "roughnessFactor" : 0.3529411852359772
            }
        }
    ],
    "meshes" : [
        {
            "name" : "Plane.010",
            "primitives" : [
                {
                    "attributes" : {
                        "POSITION" : 0,
                        "NORMAL" : 1
                    },
                    "indices" : 2,
                    "material" : 0
                },
                {
                    "attributes" : {
                        "POSITION" : 3,
                        "NORMAL" : 4
                    },
                    "indices" : 5,
                    "material" : 1
                },
                {
                    "attributes" : {
                        "POSITION" : 6,
                        "NORMAL" : 7
                    },
                    "indices" : 8,
                    "material" : 2
                },
                {
                    "attributes" : {
                        "POSITION" : 9,
                        "NORMAL" : 10
                    },
                    "indices" : 11,
                    "material" : 3
                },
                {
                    "attributes" : {
                        "POSITION" : 12,
                        "NORMAL" : 13
                    },
                    "indices" : 14,
                    "material" : 4
                }
            ]
        },
        {
            "name" : "Plane.011",
            "primitives" : [
                {
                    "attributes" : {
                        "POSITION" : 15,
                        "NORMAL" : 16,
                        "TEXCOORD_0" : 17
                    },
                    "indices" : 18
                }
            ]
        }
    ],
    "accessors" : [
        {
            "bufferView" : 0,
            "componentType" : 5126,
            "count" : 3891,
            "max" : [
                1.4307067394256592,
                9.88162899017334,
                1.3698561191558838
            ],
            "min" : [
                -1.5319560766220093,
                2.6138250827789307,
                -1.384020209312439
            ],
            "type" : "VEC3"
        },
        {
            "bufferView" : 1,
            "componentType" : 5126,
            "count" : 3891,
            "type" : "VEC3"
        },
        {
            "bufferView" : 2,
            "componentType" : 5123,
            "count" : 20577,
            "type" : "SCALAR"
        },
        {
            "bufferView" : 3,
            "componentType" : 5126,
            "count" : 10495,
            "max" : [
                1.4062867164611816,
                9.817830085754395,
                1.3844224214553833
            ],
            "min" : [
                -1.5508067607879639,
                -0.3317105770111084,
                -1.4444668292999268
            ],
            "type" : "VEC3"
        },
        {
            "bufferView" : 4,
            "componentType" : 5126,
            "count" : 10495,
            "type" : "VEC3"
        },
        {
            "bufferView" : 5,
            "componentType" : 5123,
            "count" : 57045,
            "type" : "SCALAR"
        },
        {
            "bufferView" : 6,
            "componentType" : 5126,
            "count" : 18,
            "max" : [
                0.15825626254081726,
                8.217252731323242,
                0.35985612869262695
            ],
            "min" : [
                -0.2658623456954956,
                7.7530293464660645,
                0.09489291161298752
            ],
            "type" : "VEC3"
        },
        {
            "bufferView" : 7,
            "componentType" : 5126,
            "count" : 18,
            "type" : "VEC3"
        },
        {
            "bufferView" : 8,
            "componentType" : 5123,
            "count" : 48,
            "type" : "SCALAR"
        },
        {
            "bufferView" : 9,
            "componentType" : 5126,
            "count" : 169,
            "max" : [
                1.2838088274002075,
                1.2061641216278076,
                1.1732176542282104
            ],
            "min" : [
                -1.5725469589233398,
                0.11548760533332825,
                -1.1292524337768555
            ],
            "type" : "VEC3"
        },
        {
            "bufferView" : 10,
            "componentType" : 5126,
            "count" : 169,
            "type" : "VEC3"
        },
        {
            "bufferView" : 11,
            "componentType" : 5123,
            "count" : 828,
            "type" : "SCALAR"
        },
        {
            "bufferView" : 12,
            "componentType" : 5126,
            "count" : 1348,
            "max" : [
                1.0353449583053589,
                1.1485024690628052,
                0.8751208186149597
            ],
            "min" : [
                -1.3706897497177124,
                0.36795634031295776,
                -1.0754790306091309
            ],
            "type" : "VEC3"
        },
        {
            "bufferView" : 13,
            "componentType" : 5126,
            "count" : 1348,
            "type" : "VEC3"
        },
        {
            "bufferView" : 14,
            "componentType" : 5123,
            "count" : 6624,
            "type" : "SCALAR"
        },
        {
            "bufferView" : 15,
            "componentType" : 5126,
            "count" : 233,
            "max" : [
                1.6279114484786987,
                9.539555549621582,
                1.8497624397277832
            ],
            "min" : [
                -2.251905679702759,
                0.6688046455383301,
                -2.285332202911377
            ],
            "type" : "VEC3"
        },
        {
            "bufferView" : 16,
            "componentType" : 5126,
            "count" : 233,
            "type" : "VEC3"
        },
        {
            "bufferView" : 17,
            "componentType" : 5126,
            "count" : 233,
            "type" : "VEC2"
        },
        {
            "bufferView" : 18,
            "componentType" : 5123,
            "count" : 810,
            "type" : "SCALAR"
        }
    ],
    "bufferViews" : [
        {
            "buffer" : 0,
            "byteLength" : 46692,
            "byteOffset" : 0
        },
        {
            "buffer" : 0,
            "byteLength" : 46692,
            "byteOffset" : 46692
        },
        {
            "buffer" : 0,
            "byteLength" : 41154,
            "byteOffset" : 93384
        },
        {
            "buffer" : 0,
            "byteLength" : 125940,
            "byteOffset" : 134540
        },
        {
            "buffer" : 0,
            "byteLength" : 125940,
            "byteOffset" : 260480
        },
        {
            "buffer" : 0,
            "byteLength" : 114090,
            "byteOffset" : 386420
        },
        {
            "buffer" : 0,
            "byteLength" : 216,
            "byteOffset" : 500512
        },
        {
            "buffer" : 0,
            "byteLength" : 216,
            "byteOffset" : 500728
        },
        {
            "buffer" : 0,
            "byteLength" : 96,
            "byteOffset" : 500944
        },
        {
            "buffer" : 0,
            "byteLength" : 2028,
            "byteOffset" : 501040
        },
        {
            "buffer" : 0,
            "byteLength" : 2028,
            "byteOffset" : 503068
        },
        {
            "buffer" : 0,
            "byteLength" : 1656,
            "byteOffset" : 505096
        },
        {
            "buffer" : 0,
            "byteLength" : 16176,
            "byteOffset" : 506752
        },
        {
            "buffer" : 0,
            "byteLength" : 16176,
            "byteOffset" : 522928
        },
        {
            "buffer" : 0,
            "byteLength" : 13248,
            "byteOffset" : 539104
        },
        {
            "buffer" : 0,
            "byteLength" : 2796,
            "byteOffset" : 552352
        },
        {
            "buffer" : 0,
            "byteLength" : 2796,
            "byteOffset" : 555148
        },
        {
            "buffer" : 0,
            "byteLength" : 1864,
            "byteOffset" : 557944
        },
        {
            "buffer" : 0,
            "byteLength" : 1620,
            "byteOffset" : 559808
        }
    ],
    "buffers" : [
        {
            "byteLength" : 561428,
            "uri" : "data:application/octet-stream;base64,"
        }
    ]
}
