{
    "asset" : {
        "generator" : "Khronos glTF Blender I/O v1.6.16",
        "version" : "2.0"
    },
    "scene" : 0,
    "scenes" : [
        {
            "name" : "Scene",
            "nodes" : [
                0
            ]
        }
    ],
    "nodes" : [
        {
            "mesh" : 0,
            "name" : "Icosphere"
        }
    ],
    "meshes" : [
        {
            "name" : "Icosphere",
            "primitives" : [
                {
                    "attributes" : {
                        "POSITION" : 0,
                        "NORMAL" : 1,
                        "TEXCOORD_0" : 2
                    },
                    "indices" : 3
                }
            ]
        }
    ],
    "accessors" : [
        {
            "bufferView" : 0,
            "componentType" : 5126,
            "count" : 3622,
            "max" : [
                2.3437399864196777,
                19.54986000061035,
                2.144439935684204
            ],
            "min" : [
                -2.0629541873931885,
                -0.3429357409477234,
                -2.2238106727600098
            ],
            "type" : "VEC3"
        },
        {
            "bufferView" : 1,
            "componentType" : 5126,
            "count" : 3622,
            "type" : "VEC3"
        },
        {
            "bufferView" : 2,
            "componentType" : 5126,
            "count" : 3622,
            "type" : "VEC2"
        },
        {
            "bufferView" : 3,
            "componentType" : 5123,
            "count" : 9270,
            "type" : "SCALAR"
        }
    ],
    "bufferViews" : [
        {
            "buffer" : 0,
            "byteLength" : 43464,
            "byteOffset" : 0
        },
        {
            "buffer" : 0,
            "byteLength" : 43464,
            "byteOffset" : 43464
        },
        {
            "buffer" : 0,
            "byteLength" : 28976,
            "byteOffset" : 86928
        },
        {
            "buffer" : 0,
            "byteLength" : 18540,
            "byteOffset" : 115904
        }
    ],
    "buffers" : [
        {
            "byteLength" : 134444,
            "uri" : "data:application/octet-stream;base64,"
        }
    ]
}
